<svg xmlns="http://www.w3.org/2000/svg" viewBox="0 0 64 64" role="img" aria-label="DeepSeek">
  <defs>
    <linearGradient id="deepseek-g" x1="0" y1="0" x2="1" y2="1">
      <stop offset="0%" stop-color="#0EA5E9"/>
      <stop offset="100%" stop-color="#1D4ED8"/>
    </linearGradient>
  </defs>
  <rect x="6" y="6" width="52" height="52" rx="12" fill="url(#deepseek-g)"/>
  <path d="M18 20h12c8 0 14 5 14 12s-6 12-14 12H18V20zm8 6v12h4c4 0 7-2 7-6s-3-6-7-6h-4z" fill="#fff"/>
  <path d="M46 22h-4l4 4-4 4h4l4-4-4-4zm0 12h-4l4 4-4 4h4l4-4-4-4z" fill="#BFDBFE"/>
</svg>
