<svg xmlns="http://www.w3.org/2000/svg" viewBox="0 0 64 64" role="img" aria-label="Google">
  <circle cx="32" cy="32" r="30" fill="#ffffff" stroke="#e5e7eb" stroke-width="2"/>
  <path d="M32 14a18 18 0 0 1 12.6 5.1l-5.1 5.1A10.8 10.8 0 1 0 42.8 32h-10.8v-7.2h18c.2 1.2.3 2.4.3 3.7C50.3 40 42.2 50 31.8 50 21.9 50 14 42.1 14 32s7.9-18 18-18Z" fill="#4285F4"/>
  <path d="M14 32c0-3.1.8-6 2.2-8.5l6.3 4.9A10.7 10.7 0 0 0 21.2 32c0 1.2.2 2.3.6 3.3l-6.3 4.9A17.8 17.8 0 0 1 14 32Z" fill="#34A853"/>
  <path d="M16.2 23.5A18 18 0 0 1 32 14c4.9 0 9.3 1.8 12.6 5.1l-5.1 5.1A10.8 10.8 0 0 0 22.5 28.4Z" fill="#EA4335"/>
  <path d="M21.8 35.3A10.8 10.8 0 0 0 32 42.8c3.5 0 6.5-1.1 8.7-3H32V32h18.3c.1.8.2 1.6.2 2.5 0 9.2-7.7 15.5-18.5 15.5-7.2 0-13.5-4.2-16.5-10.2Z" fill="#FBBC05"/>
</svg>
