<svg xmlns="http://www.w3.org/2000/svg" viewBox="0 0 64 64" role="img" aria-label="LFM2">
  <defs>
    <linearGradient id="lfm-g" x1="0" y1="0" x2="1" y2="1">
      <stop offset="0%" stop-color="#10B981"/>
      <stop offset="100%" stop-color="#059669"/>
    </linearGradient>
  </defs>
  <rect x="6" y="6" width="52" height="52" rx="12" fill="url(#lfm-g)"/>
  <path d="M18 20h6v20h12v6H18V20zm22 0h18v6h-6v20h-6V26h-6v-6z" fill="#fff"/>
  <path d="M38 46c0-3 2-5 5-6l4-2c2-1 3-2 3-3 0-2-1-3-3-3-2 0-4 1-5 3l-4-4c2-3 5-5 10-5 6 0 10 4 10 9 0 4-2 7-7 9l-3 1c-2 1-3 2-3 3h13v5H38v-2z" fill="#fff"/>
</svg>
